<svg xmlns="http://www.w3.org/2000/svg" xmlns:xlink="http://www.w3.org/1999/xlink" width="1923" height="1429"><defs><linearGradient id="e" x1=".997" x2="0" y1=".252" y2=".752" gradientUnits="objectBoundingBox"><stop offset="0" stop-color="#f4faff" stop-opacity="0"/><stop offset="1" stop-color="#f4faff" stop-opacity=".675"/></linearGradient><linearGradient id="f" x1="1" x2="0" y1=".248" y2=".752" gradientUnits="objectBoundingBox"><stop offset=".001" stop-color="#f4faff" stop-opacity="0"/><stop offset="1" stop-color="#f4faff" stop-opacity=".675"/></linearGradient><linearGradient id="g" x1=".75" x2=".25" y1=".123" y2=".88" gradientUnits="objectBoundingBox"><stop offset="0" stop-color="#f4faff" stop-opacity="0"/><stop offset=".063" stop-color="#f3f9ff" stop-opacity=".063"/><stop offset=".301" stop-color="#f1f7ff" stop-opacity=".278"/><stop offset=".522" stop-color="#eff6ff" stop-opacity=".451"/><stop offset=".719" stop-color="#eef5ff" stop-opacity=".573"/><stop offset=".885" stop-color="#eef5ff" stop-opacity=".647"/><stop offset="1" stop-color="#eef5ff" stop-opacity=".675"/></linearGradient><linearGradient id="h" x1=".25" x2=".75" y1=".121" y2=".879" gradientUnits="objectBoundingBox"><stop offset=".47" stop-color="#f4faff" stop-opacity="0"/><stop offset="1" stop-color="#f4faff" stop-opacity=".675"/></linearGradient><linearGradient xlink:href="#e" id="i" x1=".003" x2="1" y1=".748" y2=".248"/><linearGradient xlink:href="#e" id="j" x1=".2" x2=".8" y1=".873" y2=".127"/><linearGradient id="k" x1=".75" x2=".25" y1=".874" y2=".121" gradientUnits="objectBoundingBox"><stop offset=".44" stop-color="#f4faff" stop-opacity="0"/><stop offset="1" stop-color="#f4faff" stop-opacity=".675"/></linearGradient><linearGradient id="u" x1=".997" x2="0" y1=".252" y2=".752" gradientUnits="objectBoundingBox"><stop offset="0" stop-color="#00d364" stop-opacity="0"/><stop offset="1" stop-color="#00d364" stop-opacity=".675"/></linearGradient><linearGradient id="v" x1="1" x2="0" y1=".248" y2=".752" gradientUnits="objectBoundingBox"><stop offset=".001" stop-color="#00d364" stop-opacity="0"/><stop offset="1" stop-color="#00d364" stop-opacity=".675"/></linearGradient><linearGradient id="w" x1=".75" x2=".25" y1=".123" y2=".88" gradientUnits="objectBoundingBox"><stop offset="0" stop-color="#00d364" stop-opacity="0"/><stop offset=".209" stop-color="#00d364" stop-opacity=".2"/><stop offset=".457" stop-color="#00d364" stop-opacity=".404"/><stop offset=".681" stop-color="#00d364" stop-opacity=".553"/><stop offset=".869" stop-color="#00d364" stop-opacity=".643"/><stop offset="1" stop-color="#00d364" stop-opacity=".675"/></linearGradient><linearGradient id="x" x1=".25" x2=".75" y1=".121" y2=".879" gradientUnits="objectBoundingBox"><stop offset=".47" stop-color="#00d364" stop-opacity="0"/><stop offset="1" stop-color="#00d364" stop-opacity=".675"/></linearGradient><linearGradient xlink:href="#u" id="y" x1=".003" x2="1" y1=".748" y2=".248"/><linearGradient xlink:href="#u" id="z" x1=".2" x2=".8" y1=".873" y2=".127"/><linearGradient id="aa" x1=".75" x2=".25" y1=".874" y2=".121" gradientUnits="objectBoundingBox"><stop offset=".44" stop-color="#00d364" stop-opacity="0"/><stop offset="1" stop-color="#00d364" stop-opacity=".675"/></linearGradient><clipPath id="a"><path d="M-1 131h1923v1429H-1z" class="a"/></clipPath><clipPath id="b"><path d="M0 0h1920v1470H0z" style="fill:#eef5ff"/></clipPath><clipPath id="c"><path d="M674.249 4464.518h1911v677h-1911z" class="a"/></clipPath><clipPath id="d"><path d="M4629.634 1314.207 2371.261 10.083a75.249 75.249 0 0 0-75.259 0L37.627 1314.207a75.288 75.288 0 0 0-37.628 65.194v2608.246a75.3 75.3 0 0 0 37.628 65.193l2258.376 1304.112a75.26 75.26 0 0 0 75.259 0L4629.634 4052.84a75.3 75.3 0 0 0 37.628-65.193V1379.401a75.285 75.285 0 0 0-37.628-65.194Zm-1258.96 1924.709a75.263 75.263 0 0 1-37.63 65.183l-961.782 555.392a75.248 75.248 0 0 1-75.259 0l-961.776-555.393a75.267 75.267 0 0 1-37.63-65.183V2128.133a75.266 75.266 0 0 1 37.63-65.184l961.772-555.393a75.25 75.25 0 0 1 75.259 0l961.782 555.381a75.3 75.3 0 0 1 37.63 65.2Z" class="c"/></clipPath><clipPath id="t"><path d="M3661.005 1038.92 1875.138 7.972a59.521 59.521 0 0 0-59.513 0L29.756 1038.92A59.51 59.51 0 0 0 0 1090.458v2061.9a59.522 59.522 0 0 0 29.756 51.537l1785.868 1030.936a59.536 59.536 0 0 0 59.513 0l1785.868-1030.94a59.521 59.521 0 0 0 29.757-51.537v-2061.9a59.509 59.509 0 0 0-29.757-51.534ZM2665.45 2560.459a59.5 59.5 0 0 1-29.757 51.53l-760.555 439.053a59.519 59.519 0 0 1-59.513 0l-760.547-439.058a59.5 59.5 0 0 1-29.756-51.53v-878.102a59.5 59.5 0 0 1 29.756-51.53l760.547-439.053a59.52 59.52 0 0 1 59.513 0l760.555 439.044a59.522 59.522 0 0 1 29.757 51.539Z" class="c"/></clipPath><style>.a{fill:#fff;stroke:#707070}.c{fill:none}.h{clip-path:url(#d)}.i{fill:#dde9f7}.j{fill:url(#e)}.k{fill:url(#f)}.l{fill:url(#g)}.m{fill:url(#h)}.n{fill:url(#i)}.o{fill:url(#j)}.p{fill:url(#k)}</style></defs><g style="clip-path:url(#a)" transform="translate(1 -131)"><g style="clip-path:url(#b)" transform="translate(-1 129)"><path d="M0 0h1920v1537.2H0Z" style="fill:#f4f7fd"/><g class="h" style="clip-path:url(#c)" transform="translate(-664.249 -3680.518)"><path d="m2330.635 5341.687 2333.632-1347.58V1298.939L2330.634-48.64-2.999 1298.939v2695.164l2333.632 1347.58Z" class="i"/><path d="m1719.971 4196.856 1610.073-929.757a75.262 75.262 0 0 0 37.63-65.182V1342.402a75.283 75.283 0 0 0-37.63-65.194L1682.327 325.727l-1647.7 951.481a75.289 75.289 0 0 0-37.628 65.194v1902.974l1647.7 951.48a75.265 75.265 0 0 0 75.272 0Z" class="j"/><path d="M4015.974 3576.282V1673.308L2368.261 721.827a75.25 75.25 0 0 0-75.259 0L682.93 1651.573a75.3 75.3 0 0 0-37.63 65.194v1902.974L2293 4571.22a75.241 75.241 0 0 0 75.259 0l1610.072-929.756a75.275 75.275 0 0 0 37.643-65.182Z" class="k"/><path d="m2368.376 3822.165 1647.7-951.493V967.709a75.266 75.266 0 0 0-37.628-65.194L2368.376-27.242a75.271 75.271 0 0 0-75.27 0l-1647.7 951.493v1902.962a75.265 75.265 0 0 0 37.64 65.193l1610.072 929.759Z" class="l"/><path d="m2368.262 4571.221 961.782-555.379a75.3 75.3 0 0 0 37.63-65.194V2839.864a75.264 75.264 0 0 0-37.63-65.184l-961.782-555.391a75.241 75.241 0 0 0-75.259 0L1331.23 2774.68a75.273 75.273 0 0 0-37.63 65.2v1110.768a75.3 75.3 0 0 0 37.63 65.194l961.773 555.379a75.241 75.241 0 0 0 75.259 0Z" class="m"/><path d="m2978.932 4967.321 1647.7-951.481a75.3 75.3 0 0 0 37.628-65.193V2047.672l-1647.7-951.481a75.249 75.249 0 0 0-75.259 0l-1610.07 929.758a75.266 75.266 0 0 0-37.63 65.184v1859.513a75.3 75.3 0 0 0 37.63 65.193Z" class="n"/><path d="m2368.261 5319.952 1647.712-951.481V2465.497a75.275 75.275 0 0 0-37.64-65.182l-1610.072-929.758a75.249 75.249 0 0 0-75.259 0l-1647.7 951.481v1946.433l1647.7 951.481a75.258 75.258 0 0 0 75.259 0Z" class="o"/><path d="m2330.632 3095.487 999.413-577.118a75.278 75.278 0 0 0 37.63-65.194V1342.401a75.283 75.283 0 0 0-37.63-65.194l-961.783-555.38a75.249 75.249 0 0 0-75.259 0l-961.772 555.38a75.287 75.287 0 0 0-37.63 65.194v1110.773a75.282 75.282 0 0 0 37.63 65.194l999.4 577.118Z" class="p"/></g><path d="M0 0h1400v688H0z" style="fill:#dfebf8" transform="translate(1 -19)"/><g class="h"><path d="m425.386 1992.169 2333.632-1347.58v-2695.168L425.385-3398.158l-2333.633 1347.579V644.585l2333.632 1347.58Z" class="i"/><path d="M-185.278 847.338 1424.795-82.419a75.262 75.262 0 0 0 37.63-65.182v-1859.515a75.283 75.283 0 0 0-37.63-65.194l-1647.717-951.481-1647.7 951.481a75.289 75.289 0 0 0-37.628 65.194v1902.974l1647.7 951.48a75.265 75.265 0 0 0 75.272 0Z" class="j"/><path d="M2110.725 226.764V-1676.21L463.012-2627.691a75.25 75.25 0 0 0-75.259 0l-1610.072 929.746a75.3 75.3 0 0 0-37.63 65.194V270.223l1647.7 951.479a75.241 75.241 0 0 0 75.259 0l1610.072-929.756a75.275 75.275 0 0 0 37.643-65.182Z" class="k"/><path d="m463.127 472.647 1647.7-951.493v-1902.963a75.266 75.266 0 0 0-37.628-65.194L463.127-3376.76a75.271 75.271 0 0 0-75.27 0l-1647.7 951.493v1902.962a75.265 75.265 0 0 0 37.64 65.193L387.869 472.647Z" class="l"/><path d="m463.013 1221.703 961.782-555.379a75.3 75.3 0 0 0 37.63-65.194V-509.654a75.264 75.264 0 0 0-37.63-65.184l-961.782-555.391a75.241 75.241 0 0 0-75.259 0l-961.773 555.391a75.273 75.273 0 0 0-37.63 65.2V601.13a75.3 75.3 0 0 0 37.63 65.194l961.773 555.379a75.241 75.241 0 0 0 75.259 0Z" class="m"/><path d="m1073.683 1617.803 1647.7-951.481a75.3 75.3 0 0 0 37.628-65.193v-1902.975l-1647.7-951.481a75.249 75.249 0 0 0-75.259 0l-1610.07 929.758a75.266 75.266 0 0 0-37.63 65.184V601.128a75.3 75.3 0 0 0 37.63 65.193Z" class="n"/><path d="m463.012 1970.434 1647.712-951.481V-884.021a75.275 75.275 0 0 0-37.64-65.182L463.012-1878.961a75.249 75.249 0 0 0-75.259 0l-1647.7 951.481v1946.433l1647.7 951.481a75.258 75.258 0 0 0 75.259 0Z" class="o"/><path d="m425.383-254.031 999.413-577.118a75.278 75.278 0 0 0 37.63-65.194v-1110.774a75.283 75.283 0 0 0-37.63-65.194l-961.783-555.38a75.249 75.249 0 0 0-75.259 0l-961.772 555.38a75.287 75.287 0 0 0-37.63 65.194v1110.773a75.282 75.282 0 0 0 37.63 65.194l999.4 577.118Z" class="p"/></g></g><g style="clip-path:url(#t)" transform="translate(-410.881 -3326.801)"><path d="m2609.067 5498.834 1845.38-1065.3V2302.923L2609.066 1237.62 763.683 2302.924v2130.608l1845.382 1065.3Z" style="fill:#00b563" transform="translate(-763.683 -1246.822)"/><path d="m2126.169 4329.882 1273.207-735a59.5 59.5 0 0 0 29.757-51.53v-1470a59.509 59.509 0 0 0-29.757-51.538L2096.4 1269.639 793.439 2021.813a59.51 59.51 0 0 0-29.756 51.538v1504.357l1302.964 752.173a59.533 59.533 0 0 0 59.522.001Z" style="fill:url(#u)" transform="translate(-763.683 -982.893)"/><path d="M3484.581 3567.157V2062.8l-1302.963-752.174a59.526 59.526 0 0 0-59.513 0L848.9 2045.618a59.52 59.52 0 0 0-29.756 51.538v1504.358L2122.1 4353.687a59.524 59.524 0 0 0 59.513 0l1273.207-735a59.492 59.492 0 0 0 29.761-51.53Z" style="fill:url(#v)" transform="translate(-306.481 -710.751)"/><path d="M2181.637 4289.631 3484.6 3537.447V2033.1a59.5 59.5 0 0 0-29.756-51.537l-1273.207-735a59.537 59.537 0 0 0-59.522 0L819.15 1998.744v1504.348a59.511 59.511 0 0 0 29.757 51.538l1273.208 735Z" style="fill:url(#w)" transform="translate(-306.406 -1238.847)"/><path d="m1724.417 3297.976 760.547-439.044a59.511 59.511 0 0 0 29.765-51.537v-878.109a59.485 59.485 0 0 0-29.765-51.529L1724.417 1438.7a59.522 59.522 0 0 0-59.514 0l-760.546 439.057A59.5 59.5 0 0 0 874.6 1929.3v878.1a59.522 59.522 0 0 0 29.756 51.537l760.544 439.039a59.525 59.525 0 0 0 59.517 0Z" style="fill:url(#x)" transform="translate(150.721 344.959)"/><path d="m2207.321 4402.889 1302.963-752.173a59.521 59.521 0 0 0 29.757-51.537V2094.82l-1302.964-752.174a59.521 59.521 0 0 0-59.513 0l-1273.208 735a59.5 59.5 0 0 0-29.756 51.53v1470a59.522 59.522 0 0 0 29.756 51.537Z" style="fill:url(#y)" transform="translate(150.721 -446.824)"/><path d="m2181.618 4417.727 1302.963-752.175V2161.194a59.493 59.493 0 0 0-29.756-51.528l-1273.207-735a59.521 59.521 0 0 0-59.513 0L819.142 2126.839v1538.713L2122.1 4417.727a59.533 59.533 0 0 0 59.518 0Z" style="fill:url(#z)" transform="translate(-306.481 -182.896)"/><path d="m1694.66 3187.074 790.3-456.228a59.5 59.5 0 0 0 29.765-51.538v-878.1a59.5 59.5 0 0 0-29.765-51.538l-760.547-439.045a59.526 59.526 0 0 0-59.514 0l-760.542 439.046a59.51 59.51 0 0 0-29.756 51.538v878.1a59.51 59.51 0 0 0 29.756 51.538l790.3 456.228Z" style="fill:url(#aa)" transform="translate(150.721 -710.751)"/></g></g></svg>